<?xml version="1.0" encoding="UTF-8"?>
<svg width="64px" height="64px" viewBox="0 0 64 64" version="1.1" xmlns="http://www.w3.org/2000/svg" xmlns:xlink="http://www.w3.org/1999/xlink">
    <!-- Generator: Sketch 48.2 (47327) - http://www.bohemiancoding.com/sketch -->
    <title>Group</title>
    <desc>Created with Sketch.</desc>
    <defs></defs>
    <g id="Desktop-HD" stroke="none" stroke-width="1" fill="none" fill-rule="evenodd" transform="translate(-456.000000, -341.000000)" opacity="0.819999993">
        <g id="Group-5" transform="translate(279.000000, 275.000000)" fill="#FFFFFF" fill-rule="nonzero">
            <g id="Group-2">
                <g id="Group" transform="translate(177.000000, 66.000000)">
                    <path d="M32,0 C14.3556923,0 0,14.3556923 0,32 C0,49.6455385 14.3556923,64 32,64 C49.6455385,64 64,49.6455385 64,32 C64,14.3556923 49.6455385,0 32,0 Z M32,59.0769231 C17.0695385,59.0769231 4.92307692,46.9304615 4.92307692,32 C4.92307692,17.0695385 17.0695385,4.92307692 32,4.92307692 C46.9304615,4.92307692 59.0769231,17.0695385 59.0769231,32 C59.0769231,46.9304615 46.9304615,59.0769231 32,59.0769231 Z" id="Shape"></path>
                    <path d="M25,36.8015625 L25,26.1984375 C27.90875,25.19175 30,22.4897813 30,19.3125 C30,15.2796562 26.63625,12 22.5,12 C18.36375,12 15,15.2796562 15,19.3125 C15,22.4885625 17.09125,25.19175 20,26.1984375 L20,36.8015625 C17.09125,37.8094687 15,40.5114375 15,43.6875 C15,47.7203437 18.36375,51 22.5,51 C26.63625,51 30,47.7203437 30,43.6875 C30,40.5114375 27.90875,37.8094688 25,36.8015625 Z M22.5,16.875 C23.87875,16.875 25,17.9682187 25,19.3125 C25,20.6567812 23.87875,21.75 22.5,21.75 C21.12125,21.75 20,20.6567812 20,19.3125 C20,17.9682187 21.12125,16.875 22.5,16.875 Z M22.5,46.125 C21.12125,46.125 20,45.0317813 20,43.6875 C20,42.3432187 21.12125,41.25 22.5,41.25 C23.87875,41.25 25,42.3432187 25,43.6875 C25,45.0317813 23.87875,46.125 22.5,46.125 Z" id="Shape"></path>
                    <path d="M42.5,12 C38.36375,12 35,15.3025909 35,19.3636364 C35,20.4988636 35.27125,21.5690455 35.74,22.5312273 L30.7325,27.4464545 C30.26375,27.9066818 30,28.5313636 30,29.1818182 L30,36.5454545 C30,37.9003636 31.12,39 32.5,39 C33.88,39 35,37.9003636 35,36.5454545 L35,30.1992273 L39.275,26.0019545 C40.2525,26.4621818 41.34375,26.7272727 42.5,26.7272727 C46.63625,26.7272727 50,23.4246818 50,19.3636364 C50,15.3025909 46.63625,12 42.5,12 Z M42.5,21.8181818 C41.12125,21.8181818 40,20.7173182 40,19.3636364 C40,18.0099545 41.12125,16.9090909 42.5,16.9090909 C43.87875,16.9090909 45,18.0099545 45,19.3636364 C45,20.7173182 43.87875,21.8181818 42.5,21.8181818 Z" id="Shape"></path>
                </g>
            </g>
        </g>
    </g>
</svg>